<svg width="44" height="56" viewBox="0 0 44 56" fill="none" xmlns="http://www.w3.org/2000/svg">
  <path d="M22 52C22 52 37.5 36.2 37.5 23.4C37.5 14.0744 30.5604 6.5 22 6.5C13.4396 6.5 6.5 14.0744 6.5 23.4C6.5 36.2 22 52 22 52Z" fill="#FFFCF8" stroke="#D7DDD7" stroke-width="1.5"/>
  <circle cx="22" cy="24" r="9.25" fill="#5A7FB7"/>
  <path d="M22 18.6L28.2 21.6H15.8L22 18.6Z" fill="#FFFCF8"/>
  <rect x="16.9" y="22.5" width="2.1" height="6.8" rx="0.55" fill="#FFFCF8"/>
  <rect x="20.95" y="22.5" width="2.1" height="6.8" rx="0.55" fill="#FFFCF8"/>
  <rect x="25" y="22.5" width="2.1" height="6.8" rx="0.55" fill="#FFFCF8"/>
  <rect x="15.8" y="30.5" width="12.4" height="2.1" rx="0.8" fill="#FFFCF8"/>
  <path d="M22 10.2C15.9 10.2 10.95 15.55 10.95 22.15" stroke="#FFFFFF" stroke-opacity="0.7" stroke-width="1.4" stroke-linecap="round"/>
</svg>
